%TF.GenerationSoftware,KiCad,Pcbnew,9.0.7*%
%TF.CreationDate,2026-05-22T17:04:53-04:00*%
%TF.ProjectId,Submarine_PCB,5375626d-6172-4696-9e65-5f5043422e6b,rev?*%
%TF.SameCoordinates,Original*%
%TF.FileFunction,Legend,Bot*%
%TF.FilePolarity,Positive*%
%FSLAX46Y46*%
G04 Gerber Fmt 4.6, Leading zero omitted, Abs format (unit mm)*
G04 Created by KiCad (PCBNEW 9.0.7) date 2026-05-22 17:04:53*
%MOMM*%
%LPD*%
G01*
G04 APERTURE LIST*
%ADD10C,1.400000*%
%ADD11R,1.400000X1.400000*%
%ADD12R,1.100000X1.100000*%
%ADD13C,1.100000*%
%ADD14C,2.000000*%
%ADD15C,3.784600*%
%ADD16C,1.950000*%
%ADD17R,1.950000X1.950000*%
%ADD18C,3.200000*%
%ADD19R,1.700000X1.700000*%
%ADD20C,1.700000*%
G04 APERTURE END LIST*
%LPC*%
D10*
%TO.C,3.3V_TEST1*%
X203340000Y-39400000D03*
D11*
X200800000Y-39400000D03*
%TD*%
%TO.C,12V_TEST1*%
X201200000Y-124000000D03*
D10*
X203740000Y-124000000D03*
%TD*%
D11*
%TO.C,5V_TEST1*%
X215800000Y-39400000D03*
D10*
X218340000Y-39400000D03*
%TD*%
D12*
%TO.C,C18*%
X236600000Y-107000000D03*
D13*
X236600000Y-109000000D03*
%TD*%
D12*
%TO.C,C17*%
X236600000Y-95000000D03*
D13*
X236600000Y-97000000D03*
%TD*%
%TO.C,C9*%
X234800000Y-123600000D03*
D12*
X234800000Y-121600000D03*
%TD*%
D13*
%TO.C,C1*%
X234900000Y-78400000D03*
D12*
X234900000Y-76400000D03*
%TD*%
D14*
%TO.C,F1*%
X240120000Y-67227200D03*
X232500000Y-63772800D03*
D15*
X236310000Y-65500000D03*
%TD*%
D16*
%TO.C,J1*%
X252700000Y-57880000D03*
X252700000Y-67400000D03*
%TD*%
%TO.C,Thruster1*%
X252567500Y-86910000D03*
D17*
X252567500Y-91990000D03*
%TD*%
D16*
%TO.C,Thruster2*%
X252567500Y-99410000D03*
D17*
X252567500Y-104490000D03*
%TD*%
D16*
%TO.C,Thruster3*%
X252567500Y-111410000D03*
D17*
X252567500Y-116490000D03*
%TD*%
D18*
%TO.C,REF\u002A\u002A*%
X99700000Y-25000000D03*
%TD*%
%TO.C,REF\u002A\u002A*%
X257500000Y-130000000D03*
%TD*%
D19*
%TO.C,UART SIDE*%
X108200000Y-85950000D03*
D20*
X110740000Y-85950000D03*
X113280000Y-85950000D03*
X115820000Y-85950000D03*
%TD*%
D19*
%TO.C,BL STM32*%
X190274485Y-95772417D03*
D20*
X187734485Y-95772417D03*
X190274485Y-93232417D03*
X187734485Y-93232417D03*
X190274485Y-90692417D03*
X187734485Y-90692417D03*
X190274485Y-88152417D03*
X187734485Y-88152417D03*
X190274485Y-85612417D03*
X187734485Y-85612417D03*
X190274485Y-83072417D03*
X187734485Y-83072417D03*
X190274485Y-80532417D03*
X187734485Y-80532417D03*
X190274485Y-77992417D03*
X187734485Y-77992417D03*
X190274485Y-75452417D03*
X187734485Y-75452417D03*
X190274485Y-72912417D03*
X187734485Y-72912417D03*
X190274485Y-70372417D03*
X187734485Y-70372417D03*
X190274485Y-67832417D03*
X187734485Y-67832417D03*
X190274485Y-65292417D03*
X187734485Y-65292417D03*
X190274485Y-62752417D03*
X187734485Y-62752417D03*
X190274485Y-60212417D03*
X187734485Y-60212417D03*
X190274485Y-57672417D03*
X187734485Y-57672417D03*
X190274485Y-55132417D03*
X187734485Y-55132417D03*
X190274485Y-52592417D03*
X187734485Y-52592417D03*
X190274485Y-50052417D03*
X187734485Y-50052417D03*
%TD*%
D18*
%TO.C,REF\u002A\u002A*%
X257500000Y-25000000D03*
%TD*%
%TO.C,REF\u002A\u002A*%
X99700000Y-130000000D03*
%TD*%
D19*
%TO.C,RS485 SIDE*%
X108200000Y-126300000D03*
D20*
X110740000Y-126300000D03*
X113280000Y-126300000D03*
X115820000Y-126300000D03*
%TD*%
D19*
%TO.C,TL STM32*%
X190274485Y-123712417D03*
D20*
X190274485Y-121172417D03*
%TD*%
D19*
%TO.C,BR STM32*%
X129314485Y-95772417D03*
D20*
X126774485Y-95772417D03*
X129314485Y-93232417D03*
X126774485Y-93232417D03*
X129314485Y-90692417D03*
X126774485Y-90692417D03*
X129314485Y-88152417D03*
X126774485Y-88152417D03*
X129314485Y-85612417D03*
X126774485Y-85612417D03*
X129314485Y-83072417D03*
X126774485Y-83072417D03*
X129314485Y-80532417D03*
X126774485Y-80532417D03*
X129314485Y-77992417D03*
X126774485Y-77992417D03*
X129314485Y-75452417D03*
X126774485Y-75452417D03*
X129314485Y-72912417D03*
X126774485Y-72912417D03*
X129314485Y-70372417D03*
X126774485Y-70372417D03*
X129314485Y-67832417D03*
X126774485Y-67832417D03*
X129314485Y-65292417D03*
X126774485Y-65292417D03*
X129314485Y-62752417D03*
X126774485Y-62752417D03*
X129314485Y-60212417D03*
X126774485Y-60212417D03*
X129314485Y-57672417D03*
X126774485Y-57672417D03*
X129314485Y-55132417D03*
X126774485Y-55132417D03*
X129314485Y-52592417D03*
X126774485Y-52592417D03*
X129314485Y-50052417D03*
X126774485Y-50052417D03*
%TD*%
D19*
%TO.C,TR STM32*%
X126774485Y-123712417D03*
D20*
X126774485Y-121172417D03*
%TD*%
%LPD*%
M02*
