M48
; DRILL file {KiCad 9.0.7} date 2026-05-22T17:04:58-0400
; FORMAT={-:-/ absolute / metric / decimal}
; #@! TF.CreationDate,2026-05-22T17:04:58-04:00
; #@! TF.GenerationSoftware,Kicad,Pcbnew,9.0.7
; #@! TF.FileFunction,Plated,1,2,PTH
FMAT,2
METRIC
; #@! TA.AperFunction,Plated,PTH,ViaDrill
T1C0.300
; #@! TA.AperFunction,Plated,PTH,ComponentDrill
T2C0.700
; #@! TA.AperFunction,Plated,PTH,ComponentDrill
T3C0.900
; #@! TA.AperFunction,Plated,PTH,ComponentDrill
T4C1.000
; #@! TA.AperFunction,Plated,PTH,ComponentDrill
T5C1.270
; #@! TA.AperFunction,Plated,PTH,ComponentDrill
T6C1.300
%
G90
G05
T1
X97.25Y-59.3
X97.3Y-57.2
X97.3Y-66.2
X97.3Y-69.2
X97.3Y-72.2
X97.3Y-75.2
X97.3Y-79.1
X97.3Y-82.1
X97.3Y-85.1
X97.3Y-88.1
X97.3Y-91.1
X97.3Y-94.1
X97.3Y-97.1
X97.3Y-99.8
X97.3Y-102.8
X97.3Y-105.8
X97.3Y-108.8
X97.3Y-111.8
X97.3Y-114.8
X97.3Y-117.8
X97.5Y-35.1
X97.5Y-38.1
X97.5Y-41.1
X97.5Y-44.1
X97.5Y-47.1
X97.5Y-50.1
X97.5Y-53.1
X111.2Y-99.6
X114.35Y-76.55
X120.4Y-82.6
X124.0Y-132.4
X127.0Y-132.4
X130.0Y-132.4
X133.0Y-132.4
X133.6Y-74.25
X134.5Y-101.5
X135.0Y-21.9
X136.0Y-132.4
X138.0Y-21.9
X139.0Y-132.4
X141.0Y-21.9
X142.0Y-132.4
X144.0Y-21.9
X145.9Y-132.4
X147.0Y-21.9
X148.9Y-132.4
X149.7Y-101.7
X150.0Y-21.9
X151.9Y-132.4
X153.0Y-21.9
X154.9Y-132.4
X157.9Y-132.4
X158.0Y-110.6
X160.9Y-132.4
X163.9Y-132.4
X164.2Y-112.2
X167.6Y-132.4
X169.0Y-113.0
X170.6Y-132.4
X173.6Y-132.4
X176.6Y-132.4
X179.6Y-132.4
X182.6Y-132.4
X185.6Y-132.4
X189.5Y-132.4
X191.2Y-101.7
X191.25Y-100.3
X192.5Y-132.4
X193.15Y-58.8
X195.1Y-39.45
X195.5Y-106.0
X195.5Y-132.4
X195.8Y-76.0
X195.8Y-78.2
X195.9Y-21.9
X197.9Y-62.2
X198.1Y-64.6
X198.2Y-67.4
X198.2Y-70.5
X198.2Y-71.9
X198.2Y-60.0
X198.2Y-69.0
X198.2Y-81.0
X198.2Y-84.0
X198.2Y-87.0
X198.5Y-132.4
X198.6Y-42.2
X198.6Y-46.0
X198.9Y-21.9
X199.1Y-111.0
X199.3Y-75.0
X199.3Y-76.1
X199.5Y-106.0
X199.8Y-58.0
X200.6Y-51.0
X200.6Y-53.0
X200.6Y-55.6
X200.6Y-75.0
X200.6Y-76.1
X200.8Y-46.6
X200.8Y-48.8
X201.2Y-81.0
X201.2Y-84.0
X201.2Y-87.0
X201.5Y-132.4
X201.9Y-21.9
X201.95Y-63.05
X203.4Y-46.4
X204.2Y-66.0
X204.2Y-72.0
X204.2Y-75.0
X204.2Y-78.0
X204.2Y-81.0
X204.2Y-84.0
X204.2Y-87.0
X204.3Y-68.2
X204.5Y-132.4
X204.9Y-21.9
X206.2Y-47.0
X206.4Y-41.4
X207.2Y-66.0
X207.2Y-69.0
X207.2Y-72.0
X207.2Y-75.0
X207.2Y-78.0
X207.2Y-81.0
X207.2Y-84.0
X207.2Y-87.0
X207.5Y-132.4
X207.6Y-96.4
X207.9Y-21.9
X208.3Y-106.0
X208.4Y-93.6
X208.4Y-113.0
X208.4Y-114.5
X208.6Y-45.2
X209.0Y-29.8
X209.2Y-65.6
X209.8Y-63.8
X210.2Y-38.0
X210.25Y-43.6
X210.8Y-29.8
X210.8Y-61.0
X211.4Y-59.0
X211.6Y-21.9
X211.6Y-132.4
X212.0Y-57.4
X212.2Y-36.0
X212.4Y-41.6
X213.0Y-55.0
X213.6Y-40.2
X213.8Y-52.6
X214.4Y-50.8
X214.6Y-21.9
X214.6Y-132.4
X215.0Y-29.8
X215.3Y-124.3
X215.3Y-127.3
X215.4Y-47.8
X215.6Y-44.0
X216.2Y-45.6
X217.2Y-29.8
X217.6Y-21.9
X217.6Y-132.4
X218.3Y-124.3
X218.3Y-127.3
X219.1Y-34.85
X220.6Y-21.9
X220.6Y-132.4
X221.3Y-124.3
X221.3Y-127.3
X222.5Y-34.05
X223.6Y-21.9
X223.6Y-132.4
X224.3Y-124.3
X224.3Y-127.3
X226.6Y-21.9
X226.6Y-132.4
X227.3Y-124.3
X227.3Y-127.3
X229.6Y-21.9
X229.6Y-132.4
X229.8Y-100.3
X229.9Y-88.7
X230.3Y-124.3
X230.3Y-127.3
X231.2Y-83.7
X231.3Y-85.6
X231.3Y-87.4
X232.0Y-99.8
X232.0Y-101.5
X232.0Y-113.0
X232.0Y-114.5
X232.2Y-111.9
X232.5Y-89.0
X232.5Y-90.5
X232.5Y-102.5
X233.3Y-127.3
X233.3Y-85.6
X233.6Y-132.4
X234.75Y-31.15
X234.8Y-22.1
X235.85Y-84.35
X235.9Y-127.2
X236.5Y-112.5
X236.5Y-113.7
X236.5Y-115.0
X236.6Y-132.4
X236.7Y-88.8
X236.7Y-89.9
X236.7Y-90.9
X236.7Y-100.8
X236.7Y-102.0
X236.7Y-103.0
X237.8Y-22.1
X237.9Y-88.8
X237.9Y-89.9
X237.9Y-90.9
X237.9Y-112.5
X237.9Y-113.8
X237.9Y-115.0
X238.0Y-100.8
X238.0Y-102.0
X238.0Y-103.0
X238.7Y-48.6
X238.7Y-51.6
X238.85Y-83.85
X238.9Y-127.2
X238.95Y-124.45
X239.6Y-132.4
X240.8Y-22.1
X240.9Y-83.4
X241.2Y-54.5
X241.2Y-85.0
X241.2Y-57.5
X241.2Y-60.5
X241.7Y-48.6
X241.7Y-51.6
X241.9Y-124.2
X241.9Y-127.2
X242.6Y-132.4
X242.7Y-95.8
X242.8Y-107.4
X242.9Y-117.3
X243.0Y-77.2
X243.0Y-80.2
X243.1Y-83.4
X243.1Y-122.4
X243.2Y-109.3
X243.8Y-22.1
X244.1Y-48.6
X244.1Y-51.6
X244.2Y-54.4
X244.2Y-57.5
X244.2Y-60.5
X244.9Y-124.2
X244.9Y-127.2
X245.4Y-77.3
X245.4Y-80.3
X245.4Y-83.3
X245.6Y-132.4
X246.6Y-51.7
X246.8Y-48.6
X246.8Y-22.1
X247.0Y-108.7
X247.1Y-96.7
X247.2Y-54.5
X247.2Y-57.5
X247.2Y-60.5
X247.9Y-124.2
X247.9Y-127.2
X248.4Y-77.3
X248.4Y-80.3
X248.4Y-83.3
X248.6Y-132.4
X249.2Y-48.6
X249.2Y-51.6
X249.75Y-34.1
X249.8Y-22.1
X250.0Y-54.5
X250.0Y-57.0
X250.0Y-59.5
X250.9Y-124.2
X250.9Y-127.2
X251.4Y-82.6
X251.4Y-77.3
X251.4Y-80.3
X251.6Y-132.4
X252.2Y-48.6
X252.2Y-51.6
X252.8Y-22.1
X252.8Y-54.5
X253.9Y-124.2
X253.9Y-127.2
X254.2Y-59.4
X254.3Y-30.6
X254.3Y-33.6
X254.3Y-36.6
X254.3Y-39.6
X254.3Y-42.6
X254.3Y-45.6
X254.3Y-48.6
X254.3Y-51.6
X254.4Y-77.3
X254.4Y-80.3
X256.4Y-54.5
X256.4Y-57.2
X256.4Y-59.4
X256.6Y-95.7
X257.25Y-90.05
X257.3Y-30.6
X257.3Y-33.6
X257.3Y-36.6
X257.3Y-39.6
X257.3Y-42.6
X257.3Y-45.6
X257.3Y-48.6
X257.3Y-51.6
X257.35Y-98.05
X257.4Y-101.0
X257.4Y-77.3
X257.4Y-80.3
X257.4Y-83.3
X257.4Y-121.2
X257.4Y-124.2
X257.5Y-112.45
X257.6Y-116.05
X257.65Y-104.6
X257.9Y-108.5
X259.4Y-54.5
X259.4Y-57.0
X259.4Y-59.2
X259.6Y-95.8
X260.3Y-30.6
X260.3Y-33.6
X260.3Y-36.6
X260.3Y-39.6
X260.3Y-42.6
X260.3Y-45.6
X260.3Y-48.6
X260.3Y-51.6
X260.4Y-77.3
X260.4Y-80.3
X260.4Y-83.3
X260.4Y-89.3
X260.4Y-92.15
X260.4Y-121.2
X260.4Y-124.2
X260.45Y-85.85
X260.55Y-108.6
X260.6Y-101.2
X260.65Y-103.8
X260.7Y-98.4
X260.7Y-106.05
X260.7Y-116.15
X260.8Y-112.9
T2
X234.8Y-121.6
X234.8Y-123.6
X234.9Y-76.4
X234.9Y-78.4
X236.6Y-95.0
X236.6Y-97.0
X236.6Y-107.0
X236.6Y-109.0
T3
X200.8Y-39.4
X201.2Y-124.0
X203.34Y-39.4
X203.74Y-124.0
X215.8Y-39.4
X218.34Y-39.4
T4
X108.2Y-85.95
X108.2Y-126.3
X110.74Y-85.95
X110.74Y-126.3
X113.28Y-85.95
X113.28Y-126.3
X115.82Y-85.95
X115.82Y-126.3
X126.774Y-50.052
X126.774Y-52.592
X126.774Y-55.132
X126.774Y-57.672
X126.774Y-60.212
X126.774Y-62.752
X126.774Y-65.292
X126.774Y-67.832
X126.774Y-70.372
X126.774Y-72.912
X126.774Y-75.452
X126.774Y-77.992
X126.774Y-80.532
X126.774Y-83.072
X126.774Y-85.612
X126.774Y-88.152
X126.774Y-90.692
X126.774Y-93.232
X126.774Y-95.772
X126.774Y-121.172
X126.774Y-123.712
X129.314Y-50.052
X129.314Y-52.592
X129.314Y-55.132
X129.314Y-57.672
X129.314Y-60.212
X129.314Y-62.752
X129.314Y-65.292
X129.314Y-67.832
X129.314Y-70.372
X129.314Y-72.912
X129.314Y-75.452
X129.314Y-77.992
X129.314Y-80.532
X129.314Y-83.072
X129.314Y-85.612
X129.314Y-88.152
X129.314Y-90.692
X129.314Y-93.232
X129.314Y-95.772
X187.734Y-50.052
X187.734Y-52.592
X187.734Y-55.132
X187.734Y-57.672
X187.734Y-60.212
X187.734Y-62.752
X187.734Y-65.292
X187.734Y-67.832
X187.734Y-70.372
X187.734Y-72.912
X187.734Y-75.452
X187.734Y-77.992
X187.734Y-80.532
X187.734Y-83.072
X187.734Y-85.612
X187.734Y-88.152
X187.734Y-90.692
X187.734Y-93.232
X187.734Y-95.772
X190.274Y-50.052
X190.274Y-52.592
X190.274Y-55.132
X190.274Y-57.672
X190.274Y-60.212
X190.274Y-62.752
X190.274Y-65.292
X190.274Y-67.832
X190.274Y-70.372
X190.274Y-72.912
X190.274Y-75.452
X190.274Y-77.992
X190.274Y-80.532
X190.274Y-83.072
X190.274Y-85.612
X190.274Y-88.152
X190.274Y-90.692
X190.274Y-93.232
X190.274Y-95.772
X190.274Y-121.172
X190.274Y-123.712
T5
X232.5Y-63.773
X240.12Y-67.227
T6
X252.567Y-86.91
X252.567Y-91.99
X252.567Y-99.41
X252.567Y-104.49
X252.567Y-111.41
X252.567Y-116.49
X252.7Y-57.88
X252.7Y-67.4
M30
