%TF.GenerationSoftware,KiCad,Pcbnew,9.0.7*%
%TF.CreationDate,2026-05-22T17:04:53-04:00*%
%TF.ProjectId,Submarine_PCB,5375626d-6172-4696-9e65-5f5043422e6b,rev?*%
%TF.SameCoordinates,Original*%
%TF.FileFunction,Paste,Top*%
%TF.FilePolarity,Positive*%
%FSLAX46Y46*%
G04 Gerber Fmt 4.6, Leading zero omitted, Abs format (unit mm)*
G04 Created by KiCad (PCBNEW 9.0.7) date 2026-05-22 17:04:53*
%MOMM*%
%LPD*%
G01*
G04 APERTURE LIST*
%ADD10R,0.890000X0.980000*%
%ADD11R,1.600000X3.500000*%
%ADD12R,0.950000X1.000000*%
%ADD13R,1.300000X2.800000*%
%ADD14R,0.940000X0.730000*%
%ADD15R,1.000000X0.950000*%
%ADD16R,2.010000X6.000000*%
%ADD17R,0.800000X0.950000*%
%ADD18R,0.950000X0.800000*%
%ADD19R,1.000000X0.700000*%
%ADD20R,1.200000X0.600000*%
%ADD21R,2.400000X3.100000*%
%ADD22R,1.525000X0.650000*%
%ADD23R,2.700000X2.600000*%
%ADD24R,0.350000X0.850000*%
%ADD25R,0.800000X0.350000*%
G04 APERTURE END LIST*
D10*
%TO.C,C2*%
X197750000Y-79200000D03*
X199050000Y-79200000D03*
%TD*%
D11*
%TO.C,C3*%
X239000000Y-42000000D03*
X235000000Y-42000000D03*
%TD*%
D12*
%TO.C,C4*%
X240775000Y-30800000D03*
X239175000Y-30800000D03*
%TD*%
D13*
%TO.C,C5*%
X242900000Y-39400000D03*
X247600000Y-39400000D03*
%TD*%
%TO.C,C6*%
X242850000Y-43500000D03*
X247550000Y-43500000D03*
%TD*%
D14*
%TO.C,C7*%
X225650000Y-26840000D03*
X225650000Y-28260000D03*
%TD*%
%TO.C,C8*%
X232000000Y-23465000D03*
X232000000Y-24885000D03*
%TD*%
D12*
%TO.C,C10*%
X242375000Y-105800000D03*
X240775000Y-105800000D03*
%TD*%
%TO.C,C11*%
X242525000Y-118700000D03*
X240925000Y-118700000D03*
%TD*%
%TO.C,C12*%
X242500000Y-94100000D03*
X240900000Y-94100000D03*
%TD*%
%TO.C,C13*%
X194025000Y-72400000D03*
X195625000Y-72400000D03*
%TD*%
D15*
%TO.C,C14*%
X199700000Y-68175000D03*
X199700000Y-69775000D03*
%TD*%
%TO.C,C15*%
X199800000Y-63375000D03*
X199800000Y-64975000D03*
%TD*%
D12*
%TO.C,C16*%
X238300000Y-37600000D03*
X236700000Y-37600000D03*
%TD*%
%TO.C,C19*%
X194150000Y-67350000D03*
X195750000Y-67350000D03*
%TD*%
D16*
%TO.C,L1*%
X243300000Y-33300000D03*
X247600000Y-33300000D03*
%TD*%
D17*
%TO.C,R1*%
X229700000Y-116000000D03*
X231300000Y-116000000D03*
%TD*%
%TO.C,R2*%
X229812500Y-92300000D03*
X231412500Y-92300000D03*
%TD*%
%TO.C,R3*%
X229400000Y-104500000D03*
X231000000Y-104500000D03*
%TD*%
D18*
%TO.C,R4*%
X134950000Y-110150000D03*
X134950000Y-108550000D03*
%TD*%
%TO.C,R5*%
X139500000Y-110550000D03*
X139500000Y-108950000D03*
%TD*%
%TO.C,R6*%
X206850000Y-29900000D03*
X206850000Y-28300000D03*
%TD*%
%TO.C,R7*%
X220650000Y-31500000D03*
X220650000Y-33100000D03*
%TD*%
D17*
%TO.C,R8*%
X209250000Y-121250000D03*
X210850000Y-121250000D03*
%TD*%
D19*
%TO.C,U1*%
X238736500Y-32500000D03*
X238736500Y-33450000D03*
X238736500Y-34400000D03*
X236538500Y-34400000D03*
X236538500Y-33450000D03*
X236538500Y-32500000D03*
%TD*%
D20*
%TO.C,U2*%
X227750000Y-28350000D03*
X227750000Y-26450000D03*
X230250000Y-26450000D03*
X230250000Y-27400000D03*
X230250000Y-28350000D03*
%TD*%
D21*
%TO.C,U4*%
X237350000Y-89800000D03*
D22*
X240062000Y-87895000D03*
X240062000Y-89165000D03*
X240062000Y-90435000D03*
X240062000Y-91705000D03*
X234638000Y-91705000D03*
X234638000Y-90435000D03*
X234638000Y-89165000D03*
X234638000Y-87895000D03*
%TD*%
D21*
%TO.C,U5*%
X237350000Y-101800000D03*
D22*
X240062000Y-99895000D03*
X240062000Y-101165000D03*
X240062000Y-102435000D03*
X240062000Y-103705000D03*
X234638000Y-103705000D03*
X234638000Y-102435000D03*
X234638000Y-101165000D03*
X234638000Y-99895000D03*
%TD*%
D21*
%TO.C,U6*%
X237350000Y-113800000D03*
D22*
X240062000Y-111895000D03*
X240062000Y-113165000D03*
X240062000Y-114435000D03*
X240062000Y-115705000D03*
X234638000Y-115705000D03*
X234638000Y-114435000D03*
X234638000Y-113165000D03*
X234638000Y-111895000D03*
%TD*%
D23*
%TO.C,U7*%
X200050000Y-75350000D03*
D24*
X201300000Y-77325000D03*
X200800000Y-77325000D03*
X200300000Y-77325000D03*
X199800000Y-77325000D03*
X199300000Y-77325000D03*
X198800000Y-77325000D03*
D25*
X198050000Y-76600000D03*
X198050000Y-76100000D03*
X198050000Y-75600000D03*
X198050000Y-75100000D03*
X198050000Y-74600000D03*
X198050000Y-74100000D03*
D24*
X198800000Y-73375000D03*
X199300000Y-73375000D03*
X199800000Y-73375000D03*
X200300000Y-73375000D03*
X200800000Y-73375000D03*
X201300000Y-73375000D03*
D25*
X202050000Y-74100000D03*
X202050000Y-74600000D03*
X202050000Y-75100000D03*
X202050000Y-75600000D03*
X202050000Y-76100000D03*
X202050000Y-76600000D03*
%TD*%
M02*
