%TF.GenerationSoftware,KiCad,Pcbnew,9.0.7*%
%TF.CreationDate,2026-05-22T17:04:53-04:00*%
%TF.ProjectId,Submarine_PCB,5375626d-6172-4696-9e65-5f5043422e6b,rev?*%
%TF.SameCoordinates,Original*%
%TF.FileFunction,Soldermask,Top*%
%TF.FilePolarity,Negative*%
%FSLAX46Y46*%
G04 Gerber Fmt 4.6, Leading zero omitted, Abs format (unit mm)*
G04 Created by KiCad (PCBNEW 9.0.7) date 2026-05-22 17:04:53*
%MOMM*%
%LPD*%
G01*
G04 APERTURE LIST*
%ADD10C,1.400000*%
%ADD11R,1.400000X1.400000*%
%ADD12R,1.100000X1.100000*%
%ADD13C,1.100000*%
%ADD14R,0.890000X0.980000*%
%ADD15R,1.600000X3.500000*%
%ADD16R,0.950000X1.000000*%
%ADD17R,1.300000X2.800000*%
%ADD18R,0.940000X0.730000*%
%ADD19R,1.000000X0.950000*%
%ADD20C,2.000000*%
%ADD21C,3.784600*%
%ADD22C,1.950000*%
%ADD23R,2.010000X6.000000*%
%ADD24R,0.800000X0.950000*%
%ADD25R,0.950000X0.800000*%
%ADD26R,1.950000X1.950000*%
%ADD27R,1.500000X1.500000*%
%ADD28R,1.000000X0.700000*%
%ADD29R,1.200000X0.600000*%
%ADD30R,2.400000X3.100000*%
%ADD31R,1.525000X0.650000*%
%ADD32R,2.700000X2.600000*%
%ADD33R,0.350000X0.850000*%
%ADD34R,0.800000X0.350000*%
%ADD35C,3.200000*%
%ADD36R,1.700000X1.700000*%
%ADD37C,1.700000*%
G04 APERTURE END LIST*
D10*
%TO.C,3.3V_TEST1*%
X203340000Y-39400000D03*
D11*
X200800000Y-39400000D03*
%TD*%
%TO.C,12V_TEST1*%
X201200000Y-124000000D03*
D10*
X203740000Y-124000000D03*
%TD*%
D11*
%TO.C,5V_TEST1*%
X215800000Y-39400000D03*
D10*
X218340000Y-39400000D03*
%TD*%
D12*
%TO.C,C18*%
X236600000Y-107000000D03*
D13*
X236600000Y-109000000D03*
%TD*%
D12*
%TO.C,C17*%
X236600000Y-95000000D03*
D13*
X236600000Y-97000000D03*
%TD*%
%TO.C,C9*%
X234800000Y-123600000D03*
D12*
X234800000Y-121600000D03*
%TD*%
D13*
%TO.C,C1*%
X234900000Y-78400000D03*
D12*
X234900000Y-76400000D03*
%TD*%
D14*
%TO.C,C2*%
X197750000Y-79200000D03*
X199050000Y-79200000D03*
%TD*%
D15*
%TO.C,C3*%
X239000000Y-42000000D03*
X235000000Y-42000000D03*
%TD*%
D16*
%TO.C,C4*%
X240775000Y-30800000D03*
X239175000Y-30800000D03*
%TD*%
D17*
%TO.C,C5*%
X242900000Y-39400000D03*
X247600000Y-39400000D03*
%TD*%
%TO.C,C6*%
X242850000Y-43500000D03*
X247550000Y-43500000D03*
%TD*%
D18*
%TO.C,C7*%
X225650000Y-26840000D03*
X225650000Y-28260000D03*
%TD*%
%TO.C,C8*%
X232000000Y-23465000D03*
X232000000Y-24885000D03*
%TD*%
D16*
%TO.C,C10*%
X242375000Y-105800000D03*
X240775000Y-105800000D03*
%TD*%
%TO.C,C11*%
X242525000Y-118700000D03*
X240925000Y-118700000D03*
%TD*%
%TO.C,C12*%
X242500000Y-94100000D03*
X240900000Y-94100000D03*
%TD*%
%TO.C,C13*%
X194025000Y-72400000D03*
X195625000Y-72400000D03*
%TD*%
D19*
%TO.C,C14*%
X199700000Y-68175000D03*
X199700000Y-69775000D03*
%TD*%
%TO.C,C15*%
X199800000Y-63375000D03*
X199800000Y-64975000D03*
%TD*%
D16*
%TO.C,C16*%
X238300000Y-37600000D03*
X236700000Y-37600000D03*
%TD*%
%TO.C,C19*%
X194150000Y-67350000D03*
X195750000Y-67350000D03*
%TD*%
D20*
%TO.C,F1*%
X240120000Y-67227200D03*
X232500000Y-63772800D03*
D21*
X236310000Y-65500000D03*
%TD*%
D22*
%TO.C,J1*%
X252700000Y-57880000D03*
X252700000Y-67400000D03*
%TD*%
D23*
%TO.C,L1*%
X243300000Y-33300000D03*
X247600000Y-33300000D03*
%TD*%
D24*
%TO.C,R1*%
X229700000Y-116000000D03*
X231300000Y-116000000D03*
%TD*%
%TO.C,R2*%
X229812500Y-92300000D03*
X231412500Y-92300000D03*
%TD*%
%TO.C,R3*%
X229400000Y-104500000D03*
X231000000Y-104500000D03*
%TD*%
D25*
%TO.C,R4*%
X134950000Y-110150000D03*
X134950000Y-108550000D03*
%TD*%
%TO.C,R5*%
X139500000Y-110550000D03*
X139500000Y-108950000D03*
%TD*%
%TO.C,R6*%
X206850000Y-29900000D03*
X206850000Y-28300000D03*
%TD*%
%TO.C,R7*%
X220650000Y-31500000D03*
X220650000Y-33100000D03*
%TD*%
D24*
%TO.C,R8*%
X209250000Y-121250000D03*
X210850000Y-121250000D03*
%TD*%
D22*
%TO.C,Thruster1*%
X252567500Y-86910000D03*
D26*
X252567500Y-91990000D03*
%TD*%
D22*
%TO.C,Thruster2*%
X252567500Y-99410000D03*
D26*
X252567500Y-104490000D03*
%TD*%
D22*
%TO.C,Thruster3*%
X252567500Y-111410000D03*
D26*
X252567500Y-116490000D03*
%TD*%
D27*
%TO.C,TP1*%
X198650000Y-54550000D03*
%TD*%
%TO.C,TP2*%
X227200000Y-35750000D03*
%TD*%
%TO.C,TP3*%
X194300000Y-44350000D03*
%TD*%
%TO.C,TP4*%
X221950000Y-96250000D03*
%TD*%
%TO.C,TP5*%
X222050000Y-109150000D03*
%TD*%
%TO.C,TP6*%
X222050000Y-119550000D03*
%TD*%
%TO.C,TP7*%
X148650000Y-110400000D03*
%TD*%
D28*
%TO.C,U1*%
X238736500Y-32500000D03*
X238736500Y-33450000D03*
X238736500Y-34400000D03*
X236538500Y-34400000D03*
X236538500Y-33450000D03*
X236538500Y-32500000D03*
%TD*%
D29*
%TO.C,U2*%
X227750000Y-28350000D03*
X227750000Y-26450000D03*
X230250000Y-26450000D03*
X230250000Y-27400000D03*
X230250000Y-28350000D03*
%TD*%
D30*
%TO.C,U4*%
X237350000Y-89800000D03*
D31*
X240062000Y-87895000D03*
X240062000Y-89165000D03*
X240062000Y-90435000D03*
X240062000Y-91705000D03*
X234638000Y-91705000D03*
X234638000Y-90435000D03*
X234638000Y-89165000D03*
X234638000Y-87895000D03*
%TD*%
D30*
%TO.C,U5*%
X237350000Y-101800000D03*
D31*
X240062000Y-99895000D03*
X240062000Y-101165000D03*
X240062000Y-102435000D03*
X240062000Y-103705000D03*
X234638000Y-103705000D03*
X234638000Y-102435000D03*
X234638000Y-101165000D03*
X234638000Y-99895000D03*
%TD*%
D30*
%TO.C,U6*%
X237350000Y-113800000D03*
D31*
X240062000Y-111895000D03*
X240062000Y-113165000D03*
X240062000Y-114435000D03*
X240062000Y-115705000D03*
X234638000Y-115705000D03*
X234638000Y-114435000D03*
X234638000Y-113165000D03*
X234638000Y-111895000D03*
%TD*%
D32*
%TO.C,U7*%
X200050000Y-75350000D03*
D33*
X201300000Y-77325000D03*
X200800000Y-77325000D03*
X200300000Y-77325000D03*
X199800000Y-77325000D03*
X199300000Y-77325000D03*
X198800000Y-77325000D03*
D34*
X198050000Y-76600000D03*
X198050000Y-76100000D03*
X198050000Y-75600000D03*
X198050000Y-75100000D03*
X198050000Y-74600000D03*
X198050000Y-74100000D03*
D33*
X198800000Y-73375000D03*
X199300000Y-73375000D03*
X199800000Y-73375000D03*
X200300000Y-73375000D03*
X200800000Y-73375000D03*
X201300000Y-73375000D03*
D34*
X202050000Y-74100000D03*
X202050000Y-74600000D03*
X202050000Y-75100000D03*
X202050000Y-75600000D03*
X202050000Y-76100000D03*
X202050000Y-76600000D03*
%TD*%
D35*
%TO.C,REF\u002A\u002A*%
X99700000Y-25000000D03*
%TD*%
%TO.C,REF\u002A\u002A*%
X257500000Y-130000000D03*
%TD*%
D36*
%TO.C,UART SIDE*%
X108200000Y-85950000D03*
D37*
X110740000Y-85950000D03*
X113280000Y-85950000D03*
X115820000Y-85950000D03*
%TD*%
D36*
%TO.C,BL STM32*%
X190274485Y-95772417D03*
D37*
X187734485Y-95772417D03*
X190274485Y-93232417D03*
X187734485Y-93232417D03*
X190274485Y-90692417D03*
X187734485Y-90692417D03*
X190274485Y-88152417D03*
X187734485Y-88152417D03*
X190274485Y-85612417D03*
X187734485Y-85612417D03*
X190274485Y-83072417D03*
X187734485Y-83072417D03*
X190274485Y-80532417D03*
X187734485Y-80532417D03*
X190274485Y-77992417D03*
X187734485Y-77992417D03*
X190274485Y-75452417D03*
X187734485Y-75452417D03*
X190274485Y-72912417D03*
X187734485Y-72912417D03*
X190274485Y-70372417D03*
X187734485Y-70372417D03*
X190274485Y-67832417D03*
X187734485Y-67832417D03*
X190274485Y-65292417D03*
X187734485Y-65292417D03*
X190274485Y-62752417D03*
X187734485Y-62752417D03*
X190274485Y-60212417D03*
X187734485Y-60212417D03*
X190274485Y-57672417D03*
X187734485Y-57672417D03*
X190274485Y-55132417D03*
X187734485Y-55132417D03*
X190274485Y-52592417D03*
X187734485Y-52592417D03*
X190274485Y-50052417D03*
X187734485Y-50052417D03*
%TD*%
D35*
%TO.C,REF\u002A\u002A*%
X257500000Y-25000000D03*
%TD*%
%TO.C,REF\u002A\u002A*%
X99700000Y-130000000D03*
%TD*%
D36*
%TO.C,RS485 SIDE*%
X108200000Y-126300000D03*
D37*
X110740000Y-126300000D03*
X113280000Y-126300000D03*
X115820000Y-126300000D03*
%TD*%
D36*
%TO.C,TL STM32*%
X190274485Y-123712417D03*
D37*
X190274485Y-121172417D03*
%TD*%
D36*
%TO.C,BR STM32*%
X129314485Y-95772417D03*
D37*
X126774485Y-95772417D03*
X129314485Y-93232417D03*
X126774485Y-93232417D03*
X129314485Y-90692417D03*
X126774485Y-90692417D03*
X129314485Y-88152417D03*
X126774485Y-88152417D03*
X129314485Y-85612417D03*
X126774485Y-85612417D03*
X129314485Y-83072417D03*
X126774485Y-83072417D03*
X129314485Y-80532417D03*
X126774485Y-80532417D03*
X129314485Y-77992417D03*
X126774485Y-77992417D03*
X129314485Y-75452417D03*
X126774485Y-75452417D03*
X129314485Y-72912417D03*
X126774485Y-72912417D03*
X129314485Y-70372417D03*
X126774485Y-70372417D03*
X129314485Y-67832417D03*
X126774485Y-67832417D03*
X129314485Y-65292417D03*
X126774485Y-65292417D03*
X129314485Y-62752417D03*
X126774485Y-62752417D03*
X129314485Y-60212417D03*
X126774485Y-60212417D03*
X129314485Y-57672417D03*
X126774485Y-57672417D03*
X129314485Y-55132417D03*
X126774485Y-55132417D03*
X129314485Y-52592417D03*
X126774485Y-52592417D03*
X129314485Y-50052417D03*
X126774485Y-50052417D03*
%TD*%
D36*
%TO.C,TR STM32*%
X126774485Y-123712417D03*
D37*
X126774485Y-121172417D03*
%TD*%
M02*
