%TF.GenerationSoftware,KiCad,Pcbnew,9.0.7*%
%TF.CreationDate,2026-05-22T17:04:53-04:00*%
%TF.ProjectId,Submarine_PCB,5375626d-6172-4696-9e65-5f5043422e6b,rev?*%
%TF.SameCoordinates,Original*%
%TF.FileFunction,Copper,L2,Bot*%
%TF.FilePolarity,Positive*%
%FSLAX46Y46*%
G04 Gerber Fmt 4.6, Leading zero omitted, Abs format (unit mm)*
G04 Created by KiCad (PCBNEW 9.0.7) date 2026-05-22 17:04:53*
%MOMM*%
%LPD*%
G01*
G04 APERTURE LIST*
%TA.AperFunction,ComponentPad*%
%ADD10C,1.400000*%
%TD*%
%TA.AperFunction,ComponentPad*%
%ADD11R,1.400000X1.400000*%
%TD*%
%TA.AperFunction,ComponentPad*%
%ADD12R,1.100000X1.100000*%
%TD*%
%TA.AperFunction,ComponentPad*%
%ADD13C,1.100000*%
%TD*%
%TA.AperFunction,ComponentPad*%
%ADD14C,2.000000*%
%TD*%
%TA.AperFunction,ComponentPad*%
%ADD15C,1.950000*%
%TD*%
%TA.AperFunction,ComponentPad*%
%ADD16R,1.950000X1.950000*%
%TD*%
%TA.AperFunction,ComponentPad*%
%ADD17R,1.700000X1.700000*%
%TD*%
%TA.AperFunction,ComponentPad*%
%ADD18C,1.700000*%
%TD*%
%TA.AperFunction,ViaPad*%
%ADD19C,0.600000*%
%TD*%
%TA.AperFunction,Conductor*%
%ADD20C,0.600000*%
%TD*%
%TA.AperFunction,Conductor*%
%ADD21C,0.250000*%
%TD*%
%TA.AperFunction,Conductor*%
%ADD22C,1.000000*%
%TD*%
G04 APERTURE END LIST*
D10*
%TO.P,3.3V_TEST1,2,A*%
%TO.N,Net-(3.3V_TEST1-A)*%
X203340000Y-39400000D03*
D11*
%TO.P,3.3V_TEST1,1,K*%
%TO.N,GND*%
X200800000Y-39400000D03*
%TD*%
%TO.P,12V_TEST1,1,K*%
%TO.N,GND*%
X201200000Y-124000000D03*
D10*
%TO.P,12V_TEST1,2,A*%
%TO.N,Net-(12V_TEST1-A)*%
X203740000Y-124000000D03*
%TD*%
D11*
%TO.P,5V_TEST1,1,K*%
%TO.N,GND*%
X215800000Y-39400000D03*
D10*
%TO.P,5V_TEST1,2,A*%
%TO.N,Net-(5V_TEST1-A)*%
X218340000Y-39400000D03*
%TD*%
D12*
%TO.P,C18,1*%
%TO.N,12V_Fused*%
X236600000Y-107000000D03*
D13*
%TO.P,C18,2*%
%TO.N,GND*%
X236600000Y-109000000D03*
%TD*%
D12*
%TO.P,C17,1*%
%TO.N,12V_Fused*%
X236600000Y-95000000D03*
D13*
%TO.P,C17,2*%
%TO.N,GND*%
X236600000Y-97000000D03*
%TD*%
%TO.P,C9,2*%
%TO.N,GND*%
X234800000Y-123600000D03*
D12*
%TO.P,C9,1*%
%TO.N,12V_Fused*%
X234800000Y-121600000D03*
%TD*%
D13*
%TO.P,C1,2*%
%TO.N,GND*%
X234900000Y-78400000D03*
D12*
%TO.P,C1,1*%
%TO.N,12V_Fused*%
X234900000Y-76400000D03*
%TD*%
D14*
%TO.P,F1,2*%
%TO.N,/12V*%
X240120000Y-67227200D03*
%TO.P,F1,1*%
%TO.N,12V_Fused*%
X232500000Y-63772800D03*
%TD*%
D15*
%TO.P,J1,2,Pin_2*%
%TO.N,GND*%
X252700000Y-57880000D03*
%TO.P,J1,1,Pin_1*%
%TO.N,/12V*%
X252700000Y-67400000D03*
%TD*%
%TO.P,Thruster1,2,-*%
%TO.N,Net-(Thruster1--)*%
X252567500Y-86910000D03*
D16*
%TO.P,Thruster1,1,+*%
%TO.N,Net-(Thruster1-+)*%
X252567500Y-91990000D03*
%TD*%
D15*
%TO.P,Thruster2,2,-*%
%TO.N,Net-(Thruster2--)*%
X252567500Y-99410000D03*
D16*
%TO.P,Thruster2,1,+*%
%TO.N,Net-(Thruster2-+)*%
X252567500Y-104490000D03*
%TD*%
D15*
%TO.P,Thruster3,2,-*%
%TO.N,Net-(Thruster3--)*%
X252567500Y-111410000D03*
D16*
%TO.P,Thruster3,1,+*%
%TO.N,Net-(Thruster3-+)*%
X252567500Y-116490000D03*
%TD*%
D17*
%TO.P,UART SIDE,1*%
%TO.N,N/C*%
X108200000Y-85950000D03*
D18*
%TO.P,UART SIDE,2*%
X110740000Y-85950000D03*
%TO.P,UART SIDE,3*%
X113280000Y-85950000D03*
%TO.P,UART SIDE,4*%
X115820000Y-85950000D03*
%TD*%
D17*
%TO.P,BL STM32,1*%
%TO.N,N/C*%
X190274485Y-95772417D03*
D18*
%TO.P,BL STM32,2*%
X187734485Y-95772417D03*
%TO.P,BL STM32,3*%
X190274485Y-93232417D03*
%TO.P,BL STM32,4*%
X187734485Y-93232417D03*
%TO.P,BL STM32,5*%
X190274485Y-90692417D03*
%TO.P,BL STM32,6*%
X187734485Y-90692417D03*
%TO.P,BL STM32,7*%
X190274485Y-88152417D03*
%TO.P,BL STM32,8*%
%TO.N,GND*%
X187734485Y-88152417D03*
%TO.P,BL STM32,9*%
%TO.N,N/C*%
X190274485Y-85612417D03*
%TO.P,BL STM32,10*%
X187734485Y-85612417D03*
%TO.P,BL STM32,11*%
X190274485Y-83072417D03*
%TO.P,BL STM32,12*%
X187734485Y-83072417D03*
%TO.P,BL STM32,13*%
X190274485Y-80532417D03*
%TO.P,BL STM32,14*%
X187734485Y-80532417D03*
%TO.P,BL STM32,15*%
X190274485Y-77992417D03*
%TO.P,BL STM32,16*%
X187734485Y-77992417D03*
%TO.P,BL STM32,17*%
X190274485Y-75452417D03*
%TO.P,BL STM32,18*%
X187734485Y-75452417D03*
%TO.P,BL STM32,19*%
%TO.N,GND*%
X190274485Y-72912417D03*
%TO.P,BL STM32,20*%
X187734485Y-72912417D03*
%TO.P,BL STM32,21*%
%TO.N,N/C*%
X190274485Y-70372417D03*
%TO.P,BL STM32,22*%
%TO.N,GND*%
X187734485Y-70372417D03*
%TO.P,BL STM32,23*%
%TO.N,N/C*%
X190274485Y-67832417D03*
%TO.P,BL STM32,24*%
X187734485Y-67832417D03*
%TO.P,BL STM32,25*%
X190274485Y-65292417D03*
%TO.P,BL STM32,26*%
X187734485Y-65292417D03*
%TO.P,BL STM32,27*%
X190274485Y-62752417D03*
%TO.P,BL STM32,28*%
X187734485Y-62752417D03*
%TO.P,BL STM32,29*%
X190274485Y-60212417D03*
%TO.P,BL STM32,30*%
X187734485Y-60212417D03*
%TO.P,BL STM32,31*%
X190274485Y-57672417D03*
%TO.P,BL STM32,32*%
X187734485Y-57672417D03*
%TO.P,BL STM32,33*%
X190274485Y-55132417D03*
%TO.P,BL STM32,34*%
X187734485Y-55132417D03*
%TO.P,BL STM32,35*%
X190274485Y-52592417D03*
%TO.P,BL STM32,36*%
X187734485Y-52592417D03*
%TO.P,BL STM32,37*%
X190274485Y-50052417D03*
%TO.P,BL STM32,38*%
X187734485Y-50052417D03*
%TD*%
D17*
%TO.P,RS485 SIDE,1*%
%TO.N,GND*%
X108200000Y-126300000D03*
D18*
%TO.P,RS485 SIDE,2*%
%TO.N,N/C*%
X110740000Y-126300000D03*
%TO.P,RS485 SIDE,3*%
X113280000Y-126300000D03*
%TO.P,RS485 SIDE,4*%
%TO.N,5V*%
X115820000Y-126300000D03*
%TD*%
D17*
%TO.P,TL STM32,1*%
%TO.N,N/C*%
X190274485Y-123712417D03*
D18*
%TO.P,TL STM32,2*%
X190274485Y-121172417D03*
%TD*%
D17*
%TO.P,BR STM32,1*%
%TO.N,N/C*%
X129314485Y-95772417D03*
D18*
%TO.P,BR STM32,2*%
X126774485Y-95772417D03*
%TO.P,BR STM32,3*%
X129314485Y-93232417D03*
%TO.P,BR STM32,4*%
X126774485Y-93232417D03*
%TO.P,BR STM32,5*%
X129314485Y-90692417D03*
%TO.P,BR STM32,6*%
X126774485Y-90692417D03*
%TO.P,BR STM32,7*%
X129314485Y-88152417D03*
%TO.P,BR STM32,8*%
X126774485Y-88152417D03*
%TO.P,BR STM32,9*%
%TO.N,GND*%
X129314485Y-85612417D03*
%TO.P,BR STM32,10*%
%TO.N,N/C*%
X126774485Y-85612417D03*
%TO.P,BR STM32,11*%
X129314485Y-83072417D03*
%TO.P,BR STM32,12*%
X126774485Y-83072417D03*
%TO.P,BR STM32,13*%
X129314485Y-80532417D03*
%TO.P,BR STM32,14*%
X126774485Y-80532417D03*
%TO.P,BR STM32,15*%
X129314485Y-77992417D03*
%TO.P,BR STM32,16*%
X126774485Y-77992417D03*
%TO.P,BR STM32,17*%
X129314485Y-75452417D03*
%TO.P,BR STM32,18*%
X126774485Y-75452417D03*
%TO.P,BR STM32,19*%
X129314485Y-72912417D03*
%TO.P,BR STM32,20*%
%TO.N,GND*%
X126774485Y-72912417D03*
%TO.P,BR STM32,21*%
%TO.N,N/C*%
X129314485Y-70372417D03*
%TO.P,BR STM32,22*%
X126774485Y-70372417D03*
%TO.P,BR STM32,23*%
X129314485Y-67832417D03*
%TO.P,BR STM32,24*%
X126774485Y-67832417D03*
%TO.P,BR STM32,25*%
X129314485Y-65292417D03*
%TO.P,BR STM32,26*%
X126774485Y-65292417D03*
%TO.P,BR STM32,27*%
X129314485Y-62752417D03*
%TO.P,BR STM32,28*%
X126774485Y-62752417D03*
%TO.P,BR STM32,29*%
X129314485Y-60212417D03*
%TO.P,BR STM32,30*%
X126774485Y-60212417D03*
%TO.P,BR STM32,31*%
X129314485Y-57672417D03*
%TO.P,BR STM32,32*%
%TO.N,GND*%
X126774485Y-57672417D03*
%TO.P,BR STM32,33*%
%TO.N,N/C*%
X129314485Y-55132417D03*
%TO.P,BR STM32,34*%
X126774485Y-55132417D03*
%TO.P,BR STM32,35*%
X129314485Y-52592417D03*
%TO.P,BR STM32,36*%
X126774485Y-52592417D03*
%TO.P,BR STM32,37*%
X129314485Y-50052417D03*
%TO.P,BR STM32,38*%
X126774485Y-50052417D03*
%TD*%
D17*
%TO.P,TR STM32,1*%
%TO.N,N/C*%
X126774485Y-123712417D03*
D18*
%TO.P,TR STM32,2*%
X126774485Y-121172417D03*
%TD*%
D19*
%TO.N,*%
X133600000Y-74250000D03*
X111200000Y-99600000D03*
%TO.N,GND*%
X248400024Y-80300006D03*
X245400030Y-83300000D03*
X260450000Y-85850000D03*
X214400000Y-50800000D03*
X248400024Y-83300000D03*
X198200018Y-69000012D03*
X207200000Y-72000006D03*
X260700000Y-116150000D03*
X212400000Y-41600000D03*
X200600000Y-51000000D03*
X97500000Y-35100018D03*
X237900000Y-90900000D03*
X145900036Y-132400000D03*
X254300012Y-51600000D03*
X173600024Y-132400000D03*
X97300000Y-75199982D03*
X153000000Y-21900000D03*
X185600000Y-132400000D03*
X243000000Y-77200000D03*
X154900018Y-132400000D03*
X204500006Y-132400000D03*
X239600024Y-132400000D03*
X212200000Y-36000000D03*
X247900000Y-124200006D03*
X130000024Y-132400000D03*
X215600000Y-44000000D03*
X204200006Y-83999982D03*
X257600000Y-116050000D03*
X237900000Y-88800000D03*
X176600018Y-132400000D03*
X218300018Y-127300000D03*
X260800000Y-112900000D03*
X200600000Y-75000000D03*
X252800000Y-22100000D03*
X257300006Y-39600024D03*
X233299988Y-127300000D03*
X251400018Y-77300012D03*
X198200018Y-80999988D03*
X247200000Y-54500000D03*
X204200006Y-72000006D03*
X207200000Y-69000012D03*
X201500012Y-132400000D03*
X244100000Y-48600000D03*
X238700012Y-51600000D03*
X97300000Y-57200018D03*
X242700000Y-95800000D03*
X97300000Y-114799988D03*
X247900000Y-127200000D03*
X238900018Y-127200000D03*
X97300000Y-88100000D03*
X257300006Y-36600030D03*
X136000012Y-132400000D03*
X213800000Y-52600000D03*
X254300012Y-48600006D03*
X235850000Y-84350000D03*
X260400000Y-89300000D03*
X245400030Y-77300012D03*
X199300000Y-75000000D03*
X236500000Y-112500000D03*
X254300012Y-33600036D03*
X246800012Y-22100000D03*
X253899988Y-124200006D03*
X249200006Y-48600006D03*
X97300000Y-94099988D03*
X242900000Y-117300000D03*
X204200006Y-86999976D03*
X238950000Y-124450000D03*
X256600000Y-95700000D03*
X204899988Y-21900000D03*
X257300006Y-48600006D03*
X229600000Y-21900000D03*
X201200012Y-86999976D03*
X97300000Y-99800018D03*
X247200000Y-60500000D03*
X198200000Y-71900000D03*
X97500000Y-50099988D03*
X260600000Y-101200000D03*
X260650000Y-103800000D03*
X227300000Y-124300006D03*
X97250000Y-59300000D03*
X214600030Y-21900000D03*
X208600000Y-45200000D03*
X97500000Y-47099994D03*
X253899988Y-127200000D03*
X244200006Y-54400000D03*
X97300000Y-82100012D03*
X138000030Y-21900000D03*
X189500036Y-132400000D03*
X211600036Y-132400000D03*
X231200000Y-83700000D03*
X195100000Y-39450000D03*
X243000000Y-80200000D03*
X251400018Y-80300006D03*
X238000000Y-103000000D03*
X257650000Y-104600000D03*
X207200000Y-86999976D03*
X200600000Y-55600000D03*
X97300000Y-102800012D03*
X133000018Y-132400000D03*
X97300000Y-85100006D03*
X204300000Y-68200000D03*
X260300000Y-39600024D03*
X182600006Y-132400000D03*
X97500000Y-53099982D03*
X241700006Y-48600006D03*
X210800000Y-29800000D03*
X254200000Y-59400000D03*
X257350000Y-98050000D03*
X204200006Y-66000018D03*
X210200000Y-38000000D03*
X213000000Y-55000000D03*
X244900006Y-127200000D03*
X207200000Y-75000000D03*
X199800000Y-58000000D03*
X195900006Y-21900000D03*
X260300000Y-45600012D03*
X220600018Y-21900000D03*
X236700000Y-102000000D03*
X206200000Y-47000000D03*
X243100000Y-122400000D03*
X150000006Y-21900000D03*
X236700000Y-100800000D03*
X198500018Y-132400000D03*
X241700006Y-51600000D03*
X227300000Y-127300000D03*
X241900012Y-127200000D03*
X221300012Y-124300006D03*
X257300006Y-42600018D03*
X246600000Y-51700000D03*
X127000030Y-132400000D03*
X237800030Y-22100000D03*
X232000000Y-99800000D03*
X244200006Y-57500006D03*
X236700000Y-103000000D03*
X230299994Y-127300000D03*
X200600000Y-53000000D03*
X207200000Y-80999988D03*
X259400000Y-57000000D03*
X215300024Y-124300006D03*
X198200018Y-60000030D03*
X260300000Y-30600042D03*
X163900000Y-132400000D03*
X210250000Y-43600000D03*
X260300000Y-36600030D03*
X224300006Y-124300006D03*
X201899994Y-21900000D03*
X204200006Y-75000000D03*
X207500000Y-132400000D03*
X217200000Y-29800000D03*
X257250000Y-90050000D03*
X236700000Y-90900000D03*
X210800000Y-61000000D03*
X257400006Y-121200006D03*
X201200012Y-80999988D03*
X256400000Y-59400000D03*
X260700000Y-98400000D03*
X260700000Y-106050000D03*
X199300000Y-76100000D03*
X248600006Y-132400000D03*
X241200000Y-85000000D03*
X236700000Y-89900000D03*
X237900000Y-113800000D03*
X259600000Y-95800000D03*
X244200006Y-60500000D03*
X221300012Y-127300000D03*
X254400012Y-77300012D03*
X252200000Y-51600000D03*
X251600000Y-132400000D03*
X233600036Y-132400000D03*
X259400000Y-59200000D03*
X97500000Y-38100012D03*
X260300000Y-42600018D03*
X251400000Y-82600000D03*
X236500000Y-113700000D03*
X238000000Y-102000000D03*
X257400006Y-124200000D03*
X97300000Y-66200000D03*
X237900000Y-89900000D03*
X257300006Y-33600036D03*
X252800000Y-54500000D03*
X254300012Y-45600012D03*
X241900012Y-124200006D03*
X220600018Y-132400000D03*
X244100000Y-51600000D03*
X234800036Y-22100000D03*
X179600012Y-132400000D03*
X256400000Y-54500000D03*
X167600036Y-132400000D03*
X254300012Y-39600024D03*
X237900000Y-112500000D03*
X215000000Y-29800000D03*
X259400000Y-54500000D03*
X139000006Y-132400000D03*
X226600006Y-132400000D03*
X236700000Y-88800000D03*
X241200000Y-54500000D03*
X248400024Y-77300012D03*
X245400030Y-80300006D03*
X243800018Y-22100000D03*
X260550000Y-108600000D03*
X216200000Y-45600000D03*
X256400000Y-57200000D03*
X209000000Y-29800000D03*
X235900024Y-127200000D03*
X257400000Y-101000000D03*
X204200006Y-77999994D03*
X192500030Y-132400000D03*
X207200000Y-66000018D03*
X260400000Y-121200006D03*
X97500000Y-44100000D03*
X247100000Y-96700000D03*
X97300000Y-108800000D03*
X207200000Y-83999982D03*
X233300018Y-85600000D03*
X147000012Y-21900000D03*
X232200000Y-111900000D03*
X200600000Y-76100000D03*
X204200006Y-80999988D03*
X141000024Y-21900000D03*
X247000000Y-108700000D03*
X207200000Y-77999994D03*
X250000000Y-57000000D03*
X213600000Y-40200000D03*
X246800000Y-48600000D03*
X257500000Y-112450000D03*
X217600024Y-132400000D03*
X257400006Y-77300012D03*
X198200000Y-70500000D03*
X97300000Y-111799994D03*
X97300000Y-105800006D03*
X249800006Y-22100000D03*
X260400000Y-83300000D03*
X229800000Y-100300000D03*
X157900012Y-132400000D03*
X97300000Y-69199994D03*
X219100000Y-34850000D03*
X198200000Y-67400000D03*
X206400000Y-41400000D03*
X254300012Y-30600042D03*
X243100000Y-83400000D03*
X218300018Y-124300006D03*
X195800000Y-78200000D03*
X260400000Y-92150000D03*
X257400006Y-80300006D03*
X242600018Y-132400000D03*
X260300000Y-48600006D03*
X252200000Y-48600006D03*
X224300006Y-127300000D03*
X240800024Y-22100000D03*
X242800000Y-107400000D03*
X151900024Y-132400000D03*
X195800000Y-76000000D03*
X97300000Y-91099994D03*
X223600012Y-21900000D03*
X250000000Y-59500000D03*
X97300000Y-72199988D03*
X226600006Y-21900000D03*
X211400000Y-59000000D03*
X217600024Y-21900000D03*
X257300006Y-30600042D03*
X254300012Y-42600018D03*
X198900000Y-21900000D03*
X260400000Y-80300006D03*
X257300006Y-45600012D03*
X160900006Y-132400000D03*
X260400000Y-124200000D03*
X231300000Y-85600000D03*
X195500024Y-132400000D03*
X203400000Y-46400000D03*
X229600000Y-132400000D03*
X238000000Y-100800000D03*
X223600012Y-132400000D03*
X198200018Y-83999982D03*
X250899994Y-124200006D03*
X257900000Y-108500000D03*
X230299994Y-124300006D03*
X201950000Y-63050000D03*
X170600030Y-132400000D03*
X231300000Y-87400000D03*
X200800000Y-48800000D03*
X209800000Y-63800000D03*
X144000018Y-21900000D03*
X142000000Y-132400000D03*
X260400000Y-77300012D03*
X97300000Y-79100018D03*
X207899982Y-21900000D03*
X229900000Y-88700000D03*
X240900000Y-83400000D03*
X236500000Y-115000000D03*
X247200000Y-57500006D03*
X124000036Y-132400000D03*
X250899994Y-127200000D03*
X238700012Y-48600006D03*
X148900030Y-132400000D03*
X200800000Y-46600000D03*
X197900000Y-62200000D03*
X209200000Y-65600000D03*
X215400000Y-47800000D03*
X244900006Y-124200006D03*
X238850000Y-83850000D03*
X237900000Y-115000000D03*
X249200006Y-51600000D03*
X250000000Y-54500000D03*
X254400012Y-80300006D03*
X135000036Y-21900000D03*
X257300006Y-51600000D03*
X260300000Y-51600000D03*
X243200000Y-109300000D03*
X201200012Y-83999982D03*
X245600012Y-132400000D03*
X97300000Y-117799982D03*
X97500000Y-41100006D03*
X241200012Y-57500006D03*
X211600036Y-21900000D03*
X254300012Y-36600030D03*
X214600030Y-132400000D03*
X236600030Y-132400000D03*
X198200018Y-86999976D03*
X97300000Y-97099982D03*
X260300000Y-33600036D03*
X222500000Y-34050000D03*
X215300024Y-127300000D03*
X198100000Y-64600000D03*
X257400006Y-83300000D03*
X241200012Y-60500000D03*
X212000000Y-57400000D03*
%TO.N,3.3V*%
X198600000Y-46000000D03*
X198600000Y-42200000D03*
X158000000Y-110600000D03*
X193150000Y-58800000D03*
%TO.N,SCL*%
X191250000Y-100300000D03*
X134500000Y-101500000D03*
%TO.N,SDA*%
X149700000Y-101700000D03*
X191200000Y-101700000D03*
%TO.N,TIM3_CH1*%
X232500000Y-90500000D03*
X208400000Y-93600000D03*
%TO.N,TIM3_CH2*%
X232500000Y-89000000D03*
X207600000Y-96400000D03*
%TO.N,TIM1_CH1N*%
X199100000Y-111000000D03*
X232000000Y-101500000D03*
%TO.N,TIM4_CH1*%
X199500000Y-106000000D03*
X195500000Y-106000000D03*
X232500000Y-102500000D03*
X208300000Y-106000000D03*
%TO.N,TIM2_CH2*%
X232000000Y-114500000D03*
X208400000Y-114500000D03*
%TO.N,TIM2_CH3*%
X232000000Y-113000000D03*
X208400000Y-113000000D03*
X164200000Y-112200000D03*
X169000000Y-113000000D03*
%TO.N,5V*%
X114350000Y-76550000D03*
X120400000Y-82600000D03*
X234750000Y-31150000D03*
X249750000Y-34100000D03*
%TD*%
D20*
%TO.N,*%
X133600000Y-74250000D02*
X133600000Y-98700000D01*
X133600000Y-98700000D02*
X131250000Y-101050000D01*
X131250000Y-101050000D02*
X112650000Y-101050000D01*
X112650000Y-101050000D02*
X111200000Y-99600000D01*
%TO.N,3.3V*%
X193150000Y-105250000D02*
X193150000Y-58800000D01*
X198600000Y-42200000D02*
X198600000Y-46000000D01*
X158000000Y-110600000D02*
X187800000Y-110600000D01*
X187800000Y-110600000D02*
X193150000Y-105250000D01*
D21*
%TO.N,SCL*%
X135900000Y-100100000D02*
X134500000Y-101500000D01*
X191250000Y-100300000D02*
X191050000Y-100100000D01*
X191050000Y-100100000D02*
X135900000Y-100100000D01*
%TO.N,SDA*%
X149700000Y-101700000D02*
X191200000Y-101700000D01*
%TO.N,TIM3_CH1*%
X208400000Y-93600000D02*
X211500000Y-90500000D01*
X211500000Y-90500000D02*
X232500000Y-90500000D01*
%TO.N,TIM3_CH2*%
X207600000Y-92400000D02*
X210500000Y-89500000D01*
X207600000Y-92400000D02*
X207600000Y-96400000D01*
X232000000Y-89500000D02*
X232500000Y-89000000D01*
X210500000Y-89500000D02*
X232000000Y-89500000D01*
%TO.N,TIM1_CH1N*%
X232000000Y-101500000D02*
X208600000Y-101500000D01*
X208600000Y-101500000D02*
X199100000Y-111000000D01*
%TO.N,TIM4_CH1*%
X211300000Y-103000000D02*
X232000000Y-103000000D01*
X199500000Y-106000000D02*
X195500000Y-106000000D01*
X208300000Y-106000000D02*
X211300000Y-103000000D01*
X232000000Y-103000000D02*
X232500000Y-102500000D01*
%TO.N,TIM2_CH2*%
X208400000Y-114500000D02*
X232000000Y-114500000D01*
%TO.N,TIM2_CH3*%
X208400000Y-113000000D02*
X232000000Y-113000000D01*
X169000000Y-113000000D02*
X165000000Y-113000000D01*
X165000000Y-113000000D02*
X164200000Y-112200000D01*
D22*
%TO.N,5V*%
X237700000Y-34100000D02*
X234750000Y-31150000D01*
X249750000Y-34100000D02*
X237700000Y-34100000D01*
X120400000Y-82600000D02*
X114350000Y-76550000D01*
%TD*%
M02*
